<svg xmlns="http://www.w3.org/2000/svg" viewBox="0 0 64 64" width="32" height="32">
  <!-- Lisbon azulejo: cream glaze, cobalt florão, ceramic edge -->
  <rect width="64" height="64" rx="16" fill="#1E4D73"/>
  <rect x="4" y="4" width="56" height="56" rx="12" fill="#F6F1E8"/>
  <rect x="10" y="10" width="44" height="44" rx="8" fill="none" stroke="#1E4D73" stroke-width="2.25"/>
  <g fill="#1E4D73">
    <circle cx="32" cy="22" r="8.2"/>
    <circle cx="42" cy="32" r="8.2"/>
    <circle cx="32" cy="42" r="8.2"/>
    <circle cx="22" cy="32" r="8.2"/>
    <path d="M18 18 22 14 26 18 22 22Z"/>
    <path d="M38 18 42 14 46 18 42 22Z"/>
    <path d="M18 46 22 42 26 46 22 50Z"/>
    <path d="M38 46 42 42 46 46 42 50Z"/>
  </g>
  <circle cx="32" cy="32" r="6.2" fill="#F6F1E8"/>
  <circle cx="32" cy="32" r="3.1" fill="#1E4D73"/>
</svg>
